<svg xmlns="http://www.w3.org/2000/svg" width="300" height="90" version="1.0" viewBox="0 0 224.88 67.5"><defs><clipPath id="a"><path d="M187 17h36.992v47H187Zm0 0"/></clipPath></defs><path fill="red" d="m29.19 19.042-.767 1.296-3.312 5.907-.063-.063a9.11 9.11 0 0 0-4.609-1.234 9.003 9.003 0 0 0-3.187.562 8.751 8.751 0 0 0-2.657 1.547 9.355 9.355 0 0 0-1.984 2.375 8.1 8.1 0 0 0-1.063 2.922v17.844H2.72V17.745h8.828v4.218c2.29-3.156 5.641-4.734 10.047-4.734 2.602 0 5.114.606 7.532 1.813Zm2.61 31.156V17.745h8.625v32.453Zm0-45.438h8.625v7.594H31.8Zm28.496 26.157c1.426.48 2.735.968 3.922 1.468 1.188.493 2.223 1.086 3.11 1.782a7.442 7.442 0 0 1 2.078 2.5c.5.968.75 2.125.75 3.468v.063c0 3.293-1.094 5.87-3.282 7.734-2.187 1.856-5.25 2.781-9.187 2.781-2.461 0-4.883-.421-7.266-1.265a25.259 25.259 0 0 1-6.687-3.594l-.063-.062.063-.079 4.422-6.937.062.062c1.29 1.387 2.758 2.438 4.406 3.157 1.645.71 3.399 1.062 5.266 1.062 2.55 0 3.828-.82 3.828-2.469 0-.78-.414-1.363-1.234-1.75a24.526 24.526 0 0 0-2.922-1.109 2.709 2.709 0 0 0-.625-.156c-.188-.02-.39-.07-.61-.156a103.012 103.012 0 0 1-3.906-1.141 12.915 12.915 0 0 1-3.5-1.688 9.115 9.115 0 0 1-2.562-2.718c-.668-1.102-1-2.524-1-4.266v-.125c0-1.508.281-2.89.844-4.14a9.37 9.37 0 0 1 2.39-3.25c1.04-.915 2.297-1.618 3.766-2.11 1.476-.5 3.101-.75 4.875-.75 2.082 0 4.18.313 6.297.938a21.278 21.278 0 0 1 5.906 2.765v.125l-3.953 7.203-.063-.062c-1-1-2.234-1.79-3.703-2.375a12.57 12.57 0 0 0-4.672-.875c-.304 0-.652.023-1.047.062a2.84 2.84 0 0 0-1.062.328 2.62 2.62 0 0 0-.813.688c-.218.281-.328.68-.328 1.187 0 .399.172.758.516 1.079.351.324.797.625 1.328.906.54.281 1.145.555 1.813.812.675.262 1.343.5 2 .72.125 0 .257.023.406.062.156.043.3.086.437.125Zm46.142-13.172a3284.6 3284.6 0 0 0-11.093 11.03L81.97 42.152v8.047h-8.563V4.76h8.563v26.157l13.765-13.172ZM90.86 34.948c1.989 1.992 3.598 3.594 4.828 4.812a274.778 274.778 0 0 1 3.016 2.985l1.86 1.843c.456.45.921.903 1.39 1.36.477.46 1.031 1.012 1.656 1.656.633.649 1.516 1.512 2.64 2.594H95.596l-.063-.063-7-7.015Zm0 0"/><path d="M128.907 17.23c2.332 0 4.535.444 6.61 1.327 2.081.887 3.89 2.102 5.421 3.64a17.136 17.136 0 0 1 3.64 5.345c.884 2.03 1.329 4.218 1.329 6.562 0 2.375-.445 4.606-1.328 6.688-.887 2.074-2.102 3.882-3.64 5.421-1.532 1.532-3.34 2.743-5.423 3.625-2.074.883-4.277 1.329-6.61 1.329-3.21 0-5.87-.868-7.983-2.594v-.063l3.25-5.968.062.062a8.601 8.601 0 0 0 3.563.781 9.022 9.022 0 0 0 3.578-.718 9.227 9.227 0 0 0 2.953-1.985 9.06 9.06 0 0 0 1.969-2.953 9.194 9.194 0 0 0 .718-3.625 8.87 8.87 0 0 0-.718-3.547 8.65 8.65 0 0 0-1.97-2.875 9.608 9.608 0 0 0-2.952-1.953 9.09 9.09 0 0 0-3.578-.719c-1.293 0-2.493.243-3.594.72a9.276 9.276 0 0 0-2.89 1.952 9.032 9.032 0 0 0-1.954 2.875 8.804 8.804 0 0 0-.719 3.547v29.078h-8.75V17.745h8.75v4.406c2.344-3.281 5.766-4.922 10.266-4.922Zm55.099.515v32.453h-8.5V33.963a8.6 8.6 0 0 0-.72-3.5 8.913 8.913 0 0 0-1.968-2.859 9.067 9.067 0 0 0-2.922-1.906 8.993 8.993 0 0 0-3.469-.688 8.627 8.627 0 0 0-3.515.72 10.095 10.095 0 0 0-2.89 1.92 8.48 8.48 0 0 0-1.985 2.845 8.995 8.995 0 0 0-.703 3.547c0 1.21.234 2.355.703 3.437a8.997 8.997 0 0 0 1.984 2.86 9.655 9.655 0 0 0 2.89 1.953c1.083.468 2.255.703 3.516.703 1.332 0 2.477-.239 3.438-.72h.062v.142l3.25 5.765-.078.063c-2.117 1.648-4.73 2.468-7.843 2.468-2.293 0-4.461-.433-6.5-1.296a16.782 16.782 0 0 1-5.329-3.563 17.2 17.2 0 0 1-3.593-5.328c-.887-2.031-1.328-4.191-1.328-6.484 0-2.344.44-4.532 1.328-6.563a17.038 17.038 0 0 1 3.593-5.312 17.176 17.176 0 0 1 5.329-3.61 16.191 16.191 0 0 1 6.5-1.328c2.25 0 4.218.422 5.906 1.266 1.687.843 3.133 2.062 4.344 3.656v-4.406Zm0 0"/><g clip-path="url(#a)"><path d="m198.609 45.792-11.344-28.047h9.281v.062l8.36 23.563Zm24.86-28.047-.063.125c-.73 1.992-1.446 3.93-2.14 5.812-.688 1.887-1.337 3.653-1.938 5.297-2.168 6.055-4.106 11.258-5.813 15.61-1.71 4.343-3.539 7.878-5.484 10.609-1.95 2.812-4.149 4.844-6.594 6.094-2.45 1.257-5.512 1.89-9.187 1.89h-.125v-8.828h.125c1.125 0 2.128-.047 3.015-.14.895-.086 1.707-.266 2.438-.547a7.58 7.58 0 0 0 2.047-1.172c.625-.492 1.218-1.149 1.78-1.97.563-.78 1.126-1.733 1.688-2.858.563-1.125 1.145-2.461 1.75-4.016a180.116 180.116 0 0 0 2.016-5.422 976.22 976.22 0 0 0 2.469-6.984 980.9 980.9 0 0 0 2.203-6.235c.781-2.207 1.625-4.61 2.531-7.203v-.062Zm0 0"/></g></svg>